<svg width="1004" height="217" viewBox="0 0 1004 217" fill="none" xmlns="http://www.w3.org/2000/svg">
<g clip-path="url(#clip0_535_33)">
<path d="M209 25.5H43C40.2386 25.5 38 27.7386 38 30.5V170.5C38 173.261 40.2386 175.5 43 175.5H209C211.761 175.5 214 173.261 214 170.5V30.5C214 27.7386 211.761 25.5 209 25.5Z" fill="white" stroke="#1C355E" stroke-opacity="0.7" stroke-width="5"/>
<path d="M191 41.5H25C22.2386 41.5 20 43.7386 20 46.5V186.5C20 189.261 22.2386 191.5 25 191.5H191C193.761 191.5 196 189.261 196 186.5V46.5C196 43.7386 193.761 41.5 191 41.5Z" fill="white" stroke="#1C355E" stroke-width="5"/>
<path d="M52 79.5L92.7474 113.563L52 147.627M99.3196 153.5H137" stroke="#1C355E" stroke-width="8"/>
<line x1="231" y1="184" x2="293" y2="184" stroke="#1C355E" stroke-width="15"/>
<path d="M414.04 132.088C416.685 132.088 418.563 132.813 419.672 134.264C420.781 135.629 421.336 137.08 421.336 138.616C421.336 140.749 420.269 143.011 418.136 145.4C416.003 147.789 413.229 150.008 409.816 152.056C406.488 154.019 402.904 155.64 399.064 156.92C395.224 158.2 391.555 158.84 388.056 158.84C382.851 158.84 377.859 157.432 373.08 154.616C368.387 151.715 364.547 147.661 361.56 142.456C358.659 137.251 357.208 131.064 357.208 123.896C357.208 118.008 358.317 112.163 360.536 106.36C362.84 100.557 365.869 94.968 369.624 89.592C373.464 84.216 377.645 79.224 382.168 74.616C386.776 70.008 391.384 65.9973 395.992 62.584C400.685 59.1707 404.995 56.5253 408.92 54.648C412.845 52.6853 416.003 51.704 418.392 51.704C421.379 51.704 423.597 52.472 425.048 54.008C426.584 55.4587 427.352 57.5067 427.352 60.152C427.352 62.2853 426.925 63.9493 426.072 65.144C425.304 66.2533 424.067 67.2347 422.36 68.088C416.899 70.904 411.352 74.3173 405.72 78.328C400.173 82.3387 395.096 86.776 390.488 91.64C385.88 96.4187 382.168 101.453 379.352 106.744C376.536 112.035 375.128 117.411 375.128 122.872C375.128 128.845 376.323 133.368 378.712 136.44C381.101 139.512 384.344 141.048 388.44 141.048C390.488 141.048 392.707 140.621 395.096 139.768C397.485 138.829 399.832 137.763 402.136 136.568C404.525 135.373 406.744 134.349 408.792 133.496C410.925 132.557 412.675 132.088 414.04 132.088ZM460.41 159.224C454.351 159.224 449.487 157.091 445.818 152.824C442.149 148.472 440.314 142.669 440.314 135.416C440.314 133.112 440.613 130.765 441.21 128.376C441.893 125.987 442.703 123.768 443.642 121.72C443.13 120.952 442.703 119.971 442.362 118.776C442.106 117.496 441.978 116.003 441.978 114.296C441.978 108.749 442.959 103.672 444.922 99.064C446.885 94.3707 449.53 90.3173 452.858 86.904C456.186 83.4907 459.855 80.8453 463.866 78.968C467.877 77.0907 471.93 76.152 476.026 76.152C483.023 76.152 488.741 78.4987 493.178 83.192C497.701 87.8853 499.962 95.1813 499.962 105.08C499.962 110.029 499.194 115.064 497.658 120.184C496.122 125.304 494.031 130.211 491.386 134.904C488.826 139.512 485.839 143.651 482.426 147.32C479.098 150.989 475.514 153.891 471.674 156.024C467.919 158.157 464.165 159.224 460.41 159.224ZM458.362 115.96C458.789 116.899 459.002 118.008 459.002 119.288C459.002 120.568 458.746 121.891 458.234 123.256C457.722 124.621 457.21 126.456 456.698 128.76C456.186 130.979 455.93 134.179 455.93 138.36C455.93 139.469 456.058 140.408 456.314 141.176C456.655 141.859 457.381 142.2 458.49 142.2C461.391 142.2 464.122 141.261 466.682 139.384C469.327 137.507 471.674 135.032 473.722 131.96C475.855 128.888 477.647 125.475 479.098 121.72C480.634 117.88 481.786 113.997 482.554 110.072C483.407 106.061 483.834 102.349 483.834 98.936C483.834 96.7173 483.407 95.1813 482.554 94.328C481.701 93.4747 480.207 93.048 478.074 93.048C475.173 93.048 472.186 93.9867 469.114 95.864C466.127 97.656 463.61 100.131 461.562 103.288C459.514 106.36 458.49 109.859 458.49 113.784C458.49 114.552 458.447 115.277 458.362 115.96ZM568.893 86.52C573.586 75.3413 577.725 63.8213 581.309 51.96C581.992 49.5707 582.973 47.736 584.253 46.456C585.618 45.176 587.496 44.536 589.885 44.536C591.848 44.536 593.341 45.1333 594.365 46.328C595.389 47.4373 595.901 48.9733 595.901 50.936C595.901 52.5573 595.218 55.4587 593.853 59.64C592.488 63.736 590.824 68.9413 588.861 75.256C586.898 81.5707 584.936 88.8667 582.973 97.144C581.01 105.421 579.346 114.509 577.981 124.408C576.616 134.307 575.933 144.888 575.933 156.152C575.933 159.224 575.336 161.741 574.141 163.704C573.032 165.752 571.069 166.776 568.253 166.776C565.181 166.776 562.92 165.709 561.469 163.576C560.104 161.443 559.421 158.712 559.421 155.384C559.421 148.813 559.634 143.352 560.061 139C560.573 134.563 561.085 130.765 561.597 127.608C557.416 134.776 552.978 140.963 548.285 146.168C543.677 151.288 539.24 155.213 534.973 157.944C530.706 160.76 527.037 162.168 523.965 162.168C518.93 162.168 514.834 160.76 511.677 157.944C508.52 155.128 506.941 150.861 506.941 145.144C506.941 140.707 508.008 136.141 510.141 131.448C512.274 126.669 515.09 121.976 518.589 117.368C522.088 112.76 525.928 108.451 530.109 104.44C534.376 100.344 538.642 96.76 542.909 93.688C547.176 90.5307 551.144 88.056 554.813 86.264C558.482 84.472 561.469 83.576 563.773 83.576C566.333 83.576 568.04 84.5573 568.893 86.52ZM565.949 93.432C565.437 93.7733 564.882 94.1147 564.285 94.456C563.773 94.712 563.261 95.0107 562.749 95.352C559.506 97.4 556.05 99.8747 552.381 102.776C548.712 105.592 545.085 108.749 541.501 112.248C537.917 115.661 534.632 119.245 531.645 123C528.744 126.669 526.397 130.339 524.605 134.008C522.898 137.592 522.045 141.048 522.045 144.376C522.045 144.973 522.301 145.4 522.813 145.656C523.325 145.912 523.794 146.04 524.221 146.04C527.208 146.04 530.408 144.717 533.821 142.072C537.32 139.427 540.861 135.757 544.445 131.064C548.114 126.285 551.741 120.696 555.325 114.296C558.994 107.896 562.536 100.941 565.949 93.432ZM620.208 159.352C614.917 159.352 610.651 157.517 607.408 153.848C604.165 150.093 602.544 144.077 602.544 135.8C602.544 130.509 603.141 125.219 604.336 119.928C605.616 114.552 607.365 109.475 609.584 104.696C611.888 99.832 614.533 95.5227 617.52 91.768C620.592 88.0133 623.963 85.0693 627.632 82.936C631.301 80.7173 635.099 79.608 639.024 79.608C645.68 79.608 650.885 81.4 654.64 84.984C658.395 88.568 660.272 93.1333 660.272 98.68C660.272 102.947 659.077 106.829 656.688 110.328C654.384 113.741 651.227 116.813 647.216 119.544C643.205 122.275 638.725 124.749 633.776 126.968C628.827 129.187 623.749 131.192 618.544 132.984C618.117 136.056 617.904 138.787 617.904 141.176C617.904 142.627 618.715 143.352 620.336 143.352C624.176 143.352 628.272 142.755 632.624 141.56C637.061 140.28 641.541 138.659 646.064 136.696C650.587 134.648 654.939 132.557 659.12 130.424C663.301 128.205 667.099 126.115 670.512 124.152C674.011 122.104 676.869 120.483 679.088 119.288C681.392 118.008 682.885 117.368 683.568 117.368C685.445 117.368 686.811 117.923 687.664 119.032C688.517 120.141 688.944 121.336 688.944 122.616C688.944 123.213 687.792 124.536 685.488 126.584C683.269 128.632 680.197 131.064 676.272 133.88C672.432 136.611 668.08 139.469 663.216 142.456C658.437 145.357 653.445 148.131 648.24 150.776C643.12 153.336 638.128 155.384 633.264 156.92C628.485 158.541 624.133 159.352 620.208 159.352ZM620.72 121.592C624.219 119.544 627.675 117.411 631.088 115.192C634.587 112.888 637.488 110.328 639.792 107.512C642.096 104.611 643.248 101.24 643.248 97.4C643.248 96.2907 642.949 95.5653 642.352 95.224C641.755 94.7973 640.901 94.584 639.792 94.584C636.805 94.584 634.075 95.9067 631.6 98.552C629.211 101.197 627.077 104.611 625.2 108.792C623.408 112.888 621.915 117.155 620.72 121.592ZM695.886 152.952C695.886 152.952 695.843 152.952 695.758 152.952C694.393 152.952 693.027 152.739 691.662 152.312C690.297 151.885 689.187 150.648 688.334 148.6C687.481 146.467 687.054 142.883 687.054 137.848C687.054 134.349 687.523 130.083 688.462 125.048C689.401 120.013 690.595 114.595 692.046 108.792C693.582 102.904 695.246 97.0587 697.038 91.256C698.83 85.4533 700.537 80.0347 702.158 75C703.865 69.9653 705.358 65.656 706.638 62.072C708.003 58.488 708.985 56.0987 709.582 54.904C710.179 53.4533 711.161 52.216 712.526 51.192C713.977 50.0827 715.47 49.528 717.006 49.528C720.163 49.528 722.211 50.3813 723.15 52.088C724.089 53.7093 724.558 55.5013 724.558 57.464C724.558 59.1707 723.833 63.1387 722.382 69.368C720.931 75.512 718.627 84.5573 715.47 96.504C722.638 95.992 729.977 95.3093 737.486 94.456C745.081 93.6027 751.779 92.792 757.582 92.024C758.947 86.904 760.27 82.168 761.55 77.816C762.83 73.3787 763.939 69.6667 764.878 66.68C765.817 63.608 766.457 61.56 766.798 60.536C768.163 57.3787 769.614 55.2027 771.15 54.008C772.771 52.8133 774.435 52.216 776.142 52.216C778.361 52.216 780.238 52.9413 781.774 54.392C783.395 55.7573 784.206 58.0613 784.206 61.304C784.206 63.352 783.651 67.1493 782.542 72.696C781.433 78.2427 780.067 84.5147 778.446 91.512C779.726 92.3653 780.835 93.3893 781.774 94.584C782.798 95.7787 783.31 96.888 783.31 97.912C783.31 99.2773 782.969 100.6 782.286 101.88C781.689 103.075 780.323 104.141 778.19 105.08C777.593 105.336 776.526 105.635 774.99 105.976C773.369 112.547 771.79 118.861 770.254 124.92C768.803 130.893 767.566 136.013 766.542 140.28C765.518 144.461 764.921 147.149 764.75 148.344C764.238 151.501 763.299 154.147 761.934 156.28C760.569 158.499 758.478 159.608 755.662 159.608C753.529 159.608 751.779 158.627 750.414 156.664C749.049 154.701 748.366 150.691 748.366 144.632C748.366 140.109 748.835 134.861 749.774 128.888C750.713 122.829 751.865 116.643 753.23 110.328C746.83 111.352 739.918 112.248 732.494 113.016C725.07 113.699 717.817 113.997 710.734 113.912C708.259 123.555 706.211 131.235 704.59 136.952C703.054 142.669 701.646 146.765 700.366 149.24C699.086 151.715 697.593 152.952 695.886 152.952ZM806.857 156.92C804.468 156.92 802.334 156.109 800.457 154.488C798.665 152.867 797.769 150.221 797.769 146.552C797.769 144.589 798.025 141.816 798.537 138.232C799.134 134.648 799.902 130.765 800.841 126.584C801.78 122.317 802.804 118.093 803.913 113.912C805.108 109.731 806.26 106.019 807.369 102.776C808.478 99.448 809.46 96.9733 810.313 95.352C811.422 93.3893 812.446 92.1947 813.385 91.768C814.409 91.256 815.39 91 816.329 91C818.036 91 819.614 91.512 821.065 92.536C822.601 93.56 823.369 95.8213 823.369 99.32C823.369 100.685 823.113 102.904 822.601 105.976C822.089 108.963 821.449 112.461 820.681 116.472C819.913 120.483 819.06 124.621 818.121 128.888C817.268 133.155 816.414 137.208 815.561 141.048C814.793 144.803 814.153 147.96 813.641 150.52C813.214 152.653 812.318 154.232 810.953 155.256C809.673 156.365 808.308 156.92 806.857 156.92ZM821.577 78.328C818.761 78.328 816.158 77.5173 813.769 75.896C811.38 74.1893 810.185 71.5867 810.185 68.088C810.185 65.1867 810.91 62.84 812.361 61.048C813.812 59.256 815.518 57.976 817.481 57.208C819.529 56.3547 821.321 55.928 822.857 55.928C824.393 55.928 826.1 56.2693 827.977 56.952C829.854 57.5493 831.476 58.7013 832.841 60.408C834.292 62.0293 835.017 64.376 835.017 67.448C835.017 69.496 834.292 71.3733 832.841 73.08C831.39 74.7013 829.598 75.9813 827.465 76.92C825.417 77.8587 823.454 78.328 821.577 78.328ZM859.925 154.872C857.706 154.872 855.744 153.805 854.037 151.672C852.416 149.539 851.178 146.253 850.325 141.816C849.642 138.061 849.045 133.795 848.533 129.016C848.021 124.237 847.552 119.544 847.125 114.936C846.784 110.243 846.528 106.147 846.357 102.648C846.186 99.1493 846.101 96.76 846.101 95.48C846.101 90.872 846.912 87.0747 848.533 84.088C850.154 81.016 853.269 79.48 857.877 79.48C859.84 79.48 861.333 80.3333 862.357 82.04C863.381 83.6613 863.893 85.9227 863.893 88.824C863.893 90.616 863.893 92.8773 863.893 95.608C863.978 98.2533 864.064 101.24 864.149 104.568C864.234 108.237 864.32 112.205 864.405 116.472C864.576 120.653 864.661 124.835 864.661 129.016C867.648 124.323 870.848 119.331 874.261 114.04C877.674 108.664 881.002 103.459 884.245 98.424C887.573 93.3893 890.56 88.952 893.205 85.112C895.85 81.1867 897.856 78.4133 899.221 76.792C900.416 75.3413 901.866 74.104 903.573 73.08C905.28 71.9707 907.072 71.416 908.949 71.416C910.997 71.416 912.704 72.2267 914.069 73.848C915.434 75.4693 916.117 77.3467 916.117 79.48C916.117 81.1013 915.776 82.6373 915.093 84.088C914.496 85.5387 913.728 86.904 912.789 88.184C910.229 91.768 907.2 95.9493 903.701 100.728C900.288 105.507 896.704 110.541 892.949 115.832C889.194 121.037 885.525 126.072 881.941 130.936C878.442 135.8 875.328 140.109 872.597 143.864C870.378 147.021 868.586 149.411 867.221 151.032C865.856 152.568 864.618 153.592 863.509 154.104C862.485 154.616 861.29 154.872 859.925 154.872ZM936.458 159.352C931.167 159.352 926.901 157.517 923.658 153.848C920.415 150.093 918.794 144.077 918.794 135.8C918.794 130.509 919.391 125.219 920.586 119.928C921.866 114.552 923.615 109.475 925.834 104.696C928.138 99.832 930.783 95.5227 933.77 91.768C936.842 88.0133 940.213 85.0693 943.882 82.936C947.551 80.7173 951.349 79.608 955.274 79.608C961.93 79.608 967.135 81.4 970.89 84.984C974.645 88.568 976.522 93.1333 976.522 98.68C976.522 102.947 975.327 106.829 972.938 110.328C970.634 113.741 967.477 116.813 963.466 119.544C959.455 122.275 954.975 124.749 950.026 126.968C945.077 129.187 939.999 131.192 934.794 132.984C934.367 136.056 934.154 138.787 934.154 141.176C934.154 142.627 934.965 143.352 936.586 143.352C940.426 143.352 944.522 142.755 948.874 141.56C953.311 140.28 957.791 138.659 962.314 136.696C966.837 134.648 971.189 132.557 975.37 130.424C979.551 128.205 983.349 126.115 986.762 124.152C990.261 122.104 993.119 120.483 995.338 119.288C997.642 118.008 999.135 117.368 999.818 117.368C1001.7 117.368 1003.06 117.923 1003.91 119.032C1004.77 120.141 1005.19 121.336 1005.19 122.616C1005.19 123.213 1004.04 124.536 1001.74 126.584C999.519 128.632 996.447 131.064 992.522 133.88C988.682 136.611 984.33 139.469 979.466 142.456C974.687 145.357 969.695 148.131 964.49 150.776C959.37 153.336 954.378 155.384 949.514 156.92C944.735 158.541 940.383 159.352 936.458 159.352ZM936.97 121.592C940.469 119.544 943.925 117.411 947.338 115.192C950.837 112.888 953.738 110.328 956.042 107.512C958.346 104.611 959.498 101.24 959.498 97.4C959.498 96.2907 959.199 95.5653 958.602 95.224C958.005 94.7973 957.151 94.584 956.042 94.584C953.055 94.584 950.325 95.9067 947.85 98.552C945.461 101.197 943.327 104.611 941.45 108.792C939.658 112.888 938.165 117.155 936.97 121.592Z" fill="#1C355E"/>
</g>
<defs>
<clipPath id="clip0_535_33">
<rect width="1004" height="217" fill="white"/>
</clipPath>
</defs>
</svg>
